<?xml version="1.0" standalone="no"?>
<!DOCTYPE svg PUBLIC "-//W3C//DTD SVG 20010904//EN"
 "http://www.w3.org/TR/2001/REC-SVG-20010904/DTD/svg10.dtd">
<svg version="1.0" xmlns="http://www.w3.org/2000/svg"
 width="600.000000pt" height="219.000000pt" viewBox="0 0 600.000000 219.000000"
 preserveAspectRatio="xMidYMid meet">

<g transform="translate(0.000000,219.000000) scale(0.100000,-0.100000)"
fill="#000000" stroke="none">
<path d="M300 1810 l0 -79 92 -3 91 -3 103 -309 103 -308 -59 -79 c-72 -93
-80 -113 -80 -188 0 -51 3 -60 33 -89 65 -63 53 -62 632 -62 l525 0 0 80 0 80
-519 2 -519 3 56 77 57 77 382 1 c210 0 392 4 406 9 19 7 48 65 154 303 72
161 134 303 138 315 5 17 -12 69 -28 85 -1 2 -276 5 -611 8 l-609 5 -24 78
-24 77 -149 0 -150 0 0 -80z"/>
<path d="M1960 1480 l0 -100 45 0 45 0 0 -255 0 -255 -45 0 -45 0 0 -100 0
-100 400 0 400 0 0 195 0 196 -92 -3 -93 -3 -9 -92 -9 -93 -107 0 -108 0 -4
53 c-1 28 -2 67 0 85 l3 32 75 0 74 0 0 95 0 95 -75 0 -75 0 0 75 0 76 108 -3
107 -3 9 -77 9 -78 94 0 93 0 0 180 0 180 -400 0 -400 0 0 -100z"/>
<path d="M3403 1271 c-132 -45 -198 -148 -196 -303 2 -132 59 -222 173 -277
50 -24 66 -26 170 -25 96 0 126 5 180 25 l65 24 3 93 c1 50 1 92 0 92 -2 0
-30 -14 -62 -30 -109 -55 -218 -35 -253 48 -23 55 -12 136 23 173 38 39 94 40
123 3 12 -15 21 -35 21 -45 0 -17 9 -19 80 -19 l80 0 0 125 0 125 -59 0 c-57
0 -59 -1 -70 -30 -12 -36 -14 -36 -54 -6 -62 47 -140 56 -224 27z"/>
<path d="M4135 1280 c-105 -23 -187 -86 -226 -173 -35 -79 -33 -203 4 -280 32
-65 70 -100 147 -136 49 -23 67 -26 165 -26 98 0 116 3 165 26 77 36 115 71
147 136 37 77 39 200 3 281 -28 65 -99 131 -166 155 -58 20 -183 30 -239 17z
m142 -187 c39 -60 32 -212 -12 -250 -34 -30 -51 -29 -86 6 -28 28 -29 33 -29
118 0 112 20 153 75 153 26 0 39 -6 52 -27z"/>
<path d="M4810 1269 c-85 -9 -158 -18 -162 -18 -5 -1 -8 -35 -8 -76 l0 -75 40
0 40 0 0 -135 0 -135 -40 0 -40 0 0 -80 0 -80 200 0 200 0 0 79 c0 75 -1 80
-22 83 -22 3 -23 7 -26 122 -2 98 0 122 13 136 25 28 64 34 86 14 17 -16 19
-34 19 -226 l0 -208 160 0 160 0 0 80 c0 79 0 80 -25 80 l-26 0 3 126 c3 126
3 127 31 148 26 19 30 19 55 5 l27 -15 3 -212 2 -212 175 0 175 0 0 80 0 80
-39 0 -39 0 -4 158 c-5 162 -13 200 -51 240 -38 42 -77 56 -152 56 -68 0 -137
-23 -198 -66 -15 -11 -20 -10 -35 8 -35 44 -72 58 -148 58 -61 0 -81 -4 -132
-31 l-61 -31 -3 31 c-2 17 -7 31 -13 32 -5 1 -80 -6 -165 -16z"/>
<path d="M2944 939 c-18 -5 -46 -25 -63 -44 -26 -30 -31 -44 -31 -86 0 -67 22
-106 73 -130 75 -33 156 -20 206 35 34 37 40 118 11 164 -36 58 -119 83 -196
61z"/>
<path d="M619 587 c-72 -49 -97 -125 -65 -201 19 -46 77 -87 129 -93 94 -10
184 80 174 174 -12 113 -147 181 -238 120z"/>
<path d="M1499 587 c-72 -49 -97 -125 -65 -201 19 -46 77 -87 129 -93 94 -10
184 80 174 174 -12 113 -147 181 -238 120z"/>
</g>
</svg>
